<svg viewBox="0.121 -1.5442 1440.5591 638.0068" width="1440.5591" height="638.0068" xmlns="http://www.w3.org/2000/svg">
  <path fill="white" fill-opacity="1" d="M 0 503.233 L 27.443 538.178 C 54.134 572.6 108.019 643.273 161.004 635.932 C 214.292 629.113 264.958 542.763 320.647 489.897 C 378.761 434.729 440.507 398.056 495.016 401.659 C 549.202 405.241 579.274 412.232 632.405 461.08 C 685.836 510.452 747.899 574 800.958 595.407 C 854.315 616.031 907.881 561.255 960.883 560.97 C 1014.19 561.469 1068.035 616.462 1121.024 610.034 C 1174.311 603.608 1227.837 533.152 1280.754 498.89 C 1333.97 464.108 1387.675 464.217 1413.677 464.269 L 1440.68 464.323 L 1440.255 297.058 L 1439.514 -1.544 C 1412.911 -1.597 27.976 8.694 1.973 8.642 L 0.121 294.152 L 0.653 503.233 Z" style="transform-origin: 721.761px 466.608px;"/>
</svg>