<svg xmlns="http://www.w3.org/2000/svg" viewBox="0 0 1440 320">
  <path fill="white" fill-opacity="1" d="M0,160L26.7,186.7C53.3,213,107,267,160,261.3C213.3,256,267,192,320,149.3C373.3,107,427,85,480,74.7C533.3,64,587,64,640,101.3C693.3,139,747,213,800,229.3C853.3,245,907,203,960,202.7C1013.3,203,1067,245,1120,240C1173.3,235,1227,181,1280,154.7C1333.3,128,1387,128,1413,128L1440,128L1440,0L1413.3,0C1386.7,0,1333,0,1280,0C1226.7,0,1173,0,1120,0C1066.7,0,1013,0,960,0C906.7,0,853,0,800,0C746.7,0,693,0,640,0C586.7,0,533,0,480,0C426.7,0,373,0,320,0C266.7,0,213,0,160,0C106.7,0,53,0,27,0L0,0Z"></path>
</svg>